<svg width="111" height="35" viewBox="0 0 111 35" fill="none" xmlns="http://www.w3.org/2000/svg">
<path d="M4.36222 27H0.946023L10.8267 0.0909083H14.1903L24.071 27H20.6548L12.6136 4.34801H12.4034L4.36222 27ZM5.62358 16.4886H19.3935V19.3793H5.62358V16.4886ZM78.6217 27.473C77.3428 27.473 76.1822 27.2321 75.1398 26.7504C74.0974 26.2598 73.2697 25.5547 72.6565 24.6349C72.0434 23.7064 71.7368 22.5852 71.7368 21.2713C71.7368 20.1151 71.9645 19.1778 72.42 18.4595C72.8755 17.7325 73.4843 17.1631 74.2464 16.7514C75.0084 16.3397 75.8493 16.0331 76.7691 15.8317C77.6976 15.6214 78.6305 15.455 79.5677 15.3324C80.7941 15.1747 81.7883 15.0565 82.5503 14.9776C83.3212 14.89 83.8818 14.7455 84.2322 14.544C84.5913 14.3426 84.7709 13.9922 84.7709 13.4929V13.3878C84.7709 12.0914 84.4161 11.084 83.7066 10.3658C83.0058 9.64749 81.9416 9.28835 80.5138 9.28835C79.0334 9.28835 77.8728 9.61245 77.0319 10.2607C76.191 10.9089 75.5997 11.6009 75.2581 12.3366L72.3149 11.2855C72.8405 10.0592 73.5412 9.1044 74.4172 8.42116C75.3019 7.72917 76.2654 7.2474 77.3078 6.97585C78.3589 6.69555 79.3925 6.5554 80.4086 6.5554C81.0568 6.5554 81.8014 6.63423 82.6423 6.7919C83.492 6.94081 84.311 7.25177 85.0993 7.72479C85.8965 8.1978 86.5578 8.9117 87.0834 9.86648C87.6089 10.8213 87.8717 12.1001 87.8717 13.7031V27H84.7709V24.267H84.6132C84.403 24.705 84.0526 25.1737 83.5621 25.6729C83.0715 26.1722 82.4189 26.5971 81.6043 26.9474C80.7897 27.2978 79.7955 27.473 78.6217 27.473ZM79.0947 24.6875C80.3211 24.6875 81.3547 24.4466 82.1956 23.9648C83.0452 23.4831 83.6847 22.8612 84.1139 22.0991C84.5519 21.337 84.7709 20.5355 84.7709 19.6946V16.8565C84.6395 17.0142 84.3504 17.1587 83.9037 17.2901C83.4657 17.4128 82.9577 17.5223 82.3795 17.6186C81.8102 17.7062 81.2539 17.785 80.7108 17.8551C80.1765 17.9164 79.7429 17.969 79.4101 18.0128C78.6042 18.1179 77.8509 18.2887 77.1501 18.5252C76.4581 18.753 75.8975 19.099 75.4683 19.5632C75.0479 20.0187 74.8376 20.6406 74.8376 21.429C74.8376 22.5064 75.2362 23.321 76.0333 23.8729C76.8392 24.416 77.8596 24.6875 79.0947 24.6875Z" fill="#0085FF"/>
<path d="M28.2624 27V0.0909083H31.3633V10.0241H31.6261C31.8538 9.67377 32.1692 9.22704 32.5721 8.68395C32.9838 8.1321 33.5707 7.64157 34.3327 7.21236C35.1036 6.77438 36.146 6.5554 37.4599 6.5554C39.1592 6.5554 40.6571 6.98023 41.9535 7.8299C43.2499 8.67957 44.2616 9.884 44.9886 11.4432C45.7157 13.0024 46.0792 14.8419 46.0792 16.9616C46.0792 19.099 45.7157 20.9516 44.9886 22.5195C44.2616 24.0787 43.2543 25.2875 41.9666 26.146C40.679 26.9956 39.1942 27.4205 37.5124 27.4205C36.216 27.4205 35.178 27.2058 34.3984 26.7766C33.6188 26.3387 33.0188 25.8437 32.5984 25.2919C32.1779 24.7313 31.8538 24.267 31.6261 23.8991H31.2582V27H28.2624ZM31.3107 16.9091C31.3107 18.4332 31.5341 19.7778 31.9808 20.9428C32.4276 22.0991 33.0801 23.0057 33.9386 23.6626C34.797 24.3108 35.8481 24.6349 37.092 24.6349C38.3884 24.6349 39.4702 24.2933 40.3374 23.6101C41.2133 22.9181 41.8703 21.9896 42.3082 20.8246C42.755 19.6508 42.9783 18.3456 42.9783 16.9091C42.9783 15.4901 42.7594 14.2112 42.3214 13.0724C41.8922 11.925 41.2396 11.0183 40.3636 10.3526C39.4964 9.67815 38.4059 9.34091 37.092 9.34091C35.8306 9.34091 34.7707 9.66063 33.9123 10.3001C33.0539 10.9308 32.4057 11.8155 31.9677 12.9542C31.5297 14.0842 31.3107 15.4025 31.3107 16.9091Z" fill="#FF2E00"/>
<path d="M53.9233 14.8594V27H50.8224V0.0909083H53.9233V9.97159H54.1861C54.6591 8.92921 55.3686 8.10144 56.3146 7.48828C57.2694 6.86636 58.5395 6.5554 60.125 6.5554C61.5002 6.5554 62.7047 6.83132 63.7383 7.38317C64.7719 7.92625 65.5734 8.76278 66.1428 9.89276C66.7209 11.014 67.0099 12.4418 67.0099 14.1761V27H63.9091V14.3864C63.9091 12.7834 63.493 11.5439 62.6609 10.668C61.8375 9.78326 60.6944 9.34091 59.2315 9.34091C58.2154 9.34091 57.3045 9.55552 56.4986 9.98473C55.7015 10.4139 55.0708 11.0402 54.6065 11.8636C54.151 12.687 53.9233 13.6856 53.9233 14.8594Z" fill="#FFA800"/>
<path d="M95.5286 34.5682C95.003 34.5682 94.5344 34.5244 94.1227 34.4368C93.711 34.358 93.4263 34.2791 93.2686 34.2003L94.057 31.4673C94.8103 31.66 95.476 31.7301 96.0542 31.6776C96.6323 31.625 97.1447 31.3666 97.5914 30.9023C98.0469 30.4469 98.463 29.7067 98.8397 28.6818L99.4178 27.1051L91.9547 6.81818H95.3184L100.889 22.9006H101.1L106.671 6.81818H110.034L101.468 29.9432C101.082 30.9856 100.605 31.8484 100.035 32.5316C99.466 33.2236 98.8046 33.736 98.0513 34.0689C97.3068 34.4018 96.4659 34.5682 95.5286 34.5682Z" fill="#69BB00"/>
</svg>
