<svg width="18" height="25" viewBox="0 0 18 25" fill="none" xmlns="http://www.w3.org/2000/svg">
<path d="M13.5 12.5C13.5 15.0889 11.4014 17.1875 8.8125 17.1875C6.22363 17.1875 4.125 15.0889 4.125 12.5V4.6875C4.125 2.09863 6.22363 0 8.8125 0C11.4014 0 13.5 2.09863 13.5 4.6875V12.5Z" fill="#0AA5D7"/>
<path d="M16.625 9.375H15.8438C15.4121 9.375 15.0625 9.72461 15.0625 10.1562V12.5C15.0625 16.1523 11.9136 19.083 8.18799 18.7197C4.94092 18.4028 2.5625 15.4839 2.5625 12.2217V10.1562C2.5625 9.72461 2.21289 9.375 1.78125 9.375H1C0.568359 9.375 0.21875 9.72461 0.21875 10.1562V12.1172C0.21875 16.4941 3.34229 20.396 7.64062 20.9888V22.6562H4.90625C4.47461 22.6562 4.125 23.0059 4.125 23.4375V24.2188C4.125 24.6504 4.47461 25 4.90625 25H12.7188C13.1504 25 13.5 24.6504 13.5 24.2188V23.4375C13.5 23.0059 13.1504 22.6562 12.7188 22.6562H9.98438V21.0073C14.1694 20.4331 17.4062 16.8408 17.4062 12.5V10.1562C17.4062 9.72461 17.0566 9.375 16.625 9.375Z" fill="url(#paint0_linear_10_2)"/>
<defs>
<linearGradient id="paint0_linear_10_2" x1="1.5" y1="10.5" x2="16.5" y2="10.5" gradientUnits="userSpaceOnUse">
<stop stop-color="#D7AA0A"/>
<stop offset="1" stop-color="#D7160A"/>
</linearGradient>
</defs>
</svg>
