<svg width="46" height="37" viewBox="0 0 46 37" fill="none" xmlns="http://www.w3.org/2000/svg">
<path d="M23.0051 9.01367C16.4784 9.01367 11.2139 13.2491 11.2139 18.5C11.2139 23.7509 16.4784 27.9863 23.0051 27.9863C29.5318 27.9863 34.7963 23.7509 34.7963 18.5C34.7963 13.2491 29.5318 9.01367 23.0051 9.01367ZM23.0051 24.6674C18.7874 24.6674 15.3393 21.9015 15.3393 18.5C15.3393 15.0985 18.7771 12.3326 23.0051 12.3326C27.2331 12.3326 30.6709 15.0985 30.6709 18.5C30.6709 21.9015 27.2229 24.6674 23.0051 24.6674ZM38.0289 8.62563C38.0289 9.8558 36.7974 10.8383 35.2786 10.8383C33.7496 10.8383 32.5284 9.84754 32.5284 8.62563C32.5284 7.40372 33.7598 6.41298 35.2786 6.41298C36.7974 6.41298 38.0289 7.40372 38.0289 8.62563ZM45.8384 10.8713C45.6639 7.90734 44.8224 5.28188 42.1235 3.11877C39.4348 0.955651 36.1714 0.278646 32.4873 0.130035C28.6904 -0.0433449 17.3096 -0.0433449 13.5127 0.130035C9.83882 0.270389 6.57546 0.947395 3.87652 3.11051C1.17758 5.27362 0.346347 7.89908 0.161629 10.863C-0.0538762 13.9178 -0.0538762 23.0739 0.161629 26.1287C0.336085 29.0927 1.17758 31.7181 3.87652 33.8812C6.57546 36.0443 9.82856 36.7214 13.5127 36.87C17.3096 37.0433 28.6904 37.0433 32.4873 36.87C36.1714 36.7296 39.4348 36.0526 42.1235 33.8812C44.8122 31.7181 45.6537 29.0927 45.8384 26.1287C46.0539 23.0739 46.0539 13.9261 45.8384 10.8713ZM40.9331 29.4064C40.1326 31.0246 38.583 32.2713 36.5614 32.9235C33.5341 33.8895 26.3506 33.6666 23.0051 33.6666C19.6597 33.6666 12.4659 33.8812 9.44886 32.9235C7.43748 32.2795 5.8879 31.0329 5.07719 29.4064C3.87652 26.9708 4.1536 21.1915 4.1536 18.5C4.1536 15.8085 3.88678 10.0209 5.07719 7.59361C5.87764 5.9754 7.42722 4.72872 9.44886 4.07648C12.4762 3.11051 19.6597 3.33343 23.0051 3.33343C26.3506 3.33343 33.5443 3.11877 36.5614 4.07648C38.5728 4.72046 40.1224 5.96714 40.9331 7.59361C42.1337 10.0292 41.8567 15.8085 41.8567 18.5C41.8567 21.1915 42.1337 26.9791 40.9331 29.4064Z" fill="url(#paint0_linear_1_77)"/>
<defs>
<linearGradient id="paint0_linear_1_77" x1="23" y1="0" x2="23" y2="37" gradientUnits="userSpaceOnUse">
<stop stop-color="#FF7A00"/>
<stop offset="1" stop-color="#FF0000"/>
</linearGradient>
</defs>
</svg>
