<svg width="45" height="47" viewBox="0 0 45 47" fill="none" xmlns="http://www.w3.org/2000/svg">
<g clip-path="url(#clip0_3_24)">
<path d="M7.03125 16.1562C7.03125 20.2293 8.47705 23.9452 10.8598 26.7845C12.3117 28.5149 14.5828 32.1298 15.4485 35.1793C15.4521 35.2032 15.4547 35.227 15.4582 35.2509H29.5418C29.5453 35.227 29.548 35.2041 29.5515 35.1793C30.4172 32.1298 32.6883 28.5149 34.1402 26.7845C36.5229 23.9452 37.9688 20.2293 37.9688 16.1562C37.9688 7.21614 31.0175 -0.0275524 22.4517 -1.32887e-05C13.4859 0.0284437 7.03125 7.61637 7.03125 16.1562ZM22.5 8.81249C18.6231 8.81249 15.4688 12.1071 15.4688 16.1562C15.4688 16.9677 14.8395 17.625 14.0625 17.625C13.2855 17.625 12.6562 16.9677 12.6562 16.1562C12.6562 10.4869 17.0719 5.87499 22.5 5.87499C23.277 5.87499 23.9062 6.53225 23.9062 7.34374C23.9062 8.15522 23.277 8.81249 22.5 8.81249Z" fill="#FFA800"/>
<path d="M15.9451 43.3318C15.6384 42.8508 15.4749 42.2853 15.474 41.7079L15.4696 38.1875H29.5303L29.5268 41.7079C29.5262 42.2858 29.3623 42.8507 29.0557 43.3318L27.5537 45.6901C27.2971 46.0932 26.9491 46.4238 26.5406 46.6525C26.1321 46.8812 25.6758 47.0009 25.2123 47.0009H19.7885C19.3251 47.0009 18.8688 46.8812 18.4603 46.6525C18.0518 46.4238 17.7037 46.0932 17.4471 45.6901L15.9451 43.3318Z" fill="#0D78F5"/>
</g>
<defs>
<clipPath id="clip0_3_24">
<rect width="45" height="47" fill="white"/>
</clipPath>
</defs>
</svg>
