<svg width="31" height="47" viewBox="0 0 31 47" fill="none" xmlns="http://www.w3.org/2000/svg">
<path d="M0.03125 16.1562C0.03125 20.2293 1.47705 23.9452 3.85977 26.7845C5.31172 28.5149 7.58281 32.1298 8.44853 35.1793C8.45205 35.2032 8.45469 35.227 8.4582 35.2509H22.5418C22.5453 35.227 22.548 35.2041 22.5515 35.1793C23.4172 32.1298 25.6883 28.5149 27.1402 26.7845C29.5229 23.9452 30.9688 20.2293 30.9688 16.1562C30.9688 7.21614 24.0175 -0.0275524 15.4517 -1.32887e-05C6.48594 0.0284437 0.03125 7.61637 0.03125 16.1562ZM15.5 8.81249C11.6231 8.81249 8.46875 12.1071 8.46875 16.1562C8.46875 16.9677 7.83945 17.625 7.0625 17.625C6.28555 17.625 5.65625 16.9677 5.65625 16.1562C5.65625 10.4869 10.0719 5.87499 15.5 5.87499C16.277 5.87499 16.9062 6.53225 16.9062 7.34374C16.9062 8.15522 16.277 8.81249 15.5 8.81249Z" fill="#FFA800"/>
<path d="M8.94509 43.3318C8.63835 42.8508 8.47488 42.2853 8.474 41.7079L8.4696 38.1875H22.5303L22.5268 41.7079C22.5262 42.2858 22.3623 42.8507 22.0557 43.3318L20.5537 45.6901C20.2971 46.0932 19.9491 46.4238 19.5406 46.6525C19.1321 46.8812 18.6758 47.0009 18.2123 47.0009H12.7885C12.3251 47.0009 11.8688 46.8812 11.4603 46.6525C11.0518 46.4238 10.7037 46.0932 10.4471 45.6901L8.94509 43.3318Z" fill="#0D78F5"/>
</svg>
