<svg width="43" height="37" viewBox="0 0 43 37" fill="none" xmlns="http://www.w3.org/2000/svg">
<path d="M39.9286 0H3.06183C1.37254 0 0 1.19754 0 2.66763V34.3324C0 35.8025 1.37254 37 3.06183 37H39.9286C41.6179 37 43 35.8025 43 34.3324V2.66763C43 1.19754 41.6179 0 39.9286 0ZM12.996 31.7143H6.62277V14.0567H13.0056V31.7143H12.996ZM9.80937 11.6451C7.76496 11.6451 6.11406 10.2163 6.11406 8.4654C6.11406 6.71451 7.76496 5.28571 9.80937 5.28571C11.8442 5.28571 13.5047 6.71451 13.5047 8.4654C13.5047 10.2246 11.8538 11.6451 9.80937 11.6451ZM36.8859 31.7143H30.5127V23.125C30.5127 21.0768 30.4647 18.4422 27.2013 18.4422C23.8804 18.4422 23.3717 20.6721 23.3717 22.9763V31.7143H16.9984V14.0567H23.1125V16.4683H23.1989C24.0531 15.0808 26.1359 13.619 29.2362 13.619C35.6862 13.619 36.8859 17.2777 36.8859 22.0348V31.7143Z" fill="#0077E6"/>
</svg>
