<svg width="29" height="25" viewBox="0 0 29 25" fill="none" xmlns="http://www.w3.org/2000/svg">
<path d="M22.75 15.625C21.2928 15.625 19.9536 16.0068 18.8963 16.6453L12.2908 13.5176C12.4864 12.8473 12.4864 12.1527 12.2908 11.4823L18.8963 8.35469C19.9536 8.99321 21.2928 9.375 22.75 9.375C26.1672 9.375 28.9375 7.27632 28.9375 4.6875C28.9375 2.09868 26.1672 0 22.75 0C19.3328 0 16.5625 2.09868 16.5625 4.6875C16.5625 5.03701 16.6134 5.37744 16.7092 5.70513L10.1037 8.83276C9.04643 8.19429 7.70716 7.8125 6.25 7.8125C2.83276 7.8125 0.0625 9.91118 0.0625 12.5C0.0625 15.0888 2.83276 17.1875 6.25 17.1875C7.70716 17.1875 9.04643 16.8057 10.1037 16.1672L16.7092 19.2949C16.6116 19.629 16.5624 19.9703 16.5625 20.3125C16.5625 22.9013 19.3328 25 22.75 25C26.1672 25 28.9375 22.9013 28.9375 20.3125C28.9375 17.7237 26.1672 15.625 22.75 15.625Z" fill="black"/>
</svg>
