<svg width="53" height="37" viewBox="0 0 53 37" fill="none" xmlns="http://www.w3.org/2000/svg">
<path d="M51.8925 5.78925C51.283 3.51047 49.487 1.71578 47.2067 1.10672C43.0736 0 26.5 0 26.5 0C26.5 0 9.92652 0 5.79324 1.10672C3.51296 1.71587 1.71703 3.51047 1.10749 5.78925C0 9.91966 0 18.5374 0 18.5374C0 18.5374 0 27.1551 1.10749 31.2855C1.71703 33.5643 3.51296 35.2842 5.79324 35.8933C9.92652 37 26.5 37 26.5 37C26.5 37 43.0735 37 47.2067 35.8933C49.487 35.2842 51.283 33.5643 51.8925 31.2855C53 27.1551 53 18.5374 53 18.5374C53 18.5374 53 9.91966 51.8925 5.78925ZM21.0795 26.3616V10.7131L34.9317 18.5376L21.0795 26.3616Z" fill="#D7160A"/>
</svg>
